<?xml version="1.0" standalone="no"?>
<!DOCTYPE svg PUBLIC "-//W3C//DTD SVG 20010904//EN"
 "http://www.w3.org/TR/2001/REC-SVG-20010904/DTD/svg10.dtd">
<svg version="1.0" xmlns="http://www.w3.org/2000/svg"
 width="700.000000pt" height="700.000000pt" viewBox="0 0 700.000000 700.000000"
 preserveAspectRatio="xMidYMid meet">
<metadata>
Created by potrace 1.14, written by Peter Selinger 2001-2017
</metadata>
<g transform="translate(0.000000,700.000000) scale(0.100000,-0.100000)"
fill="#000000" stroke="none">
<path d="M12 6983 c8 -10 114 -151 235 -313 121 -162 360 -484 533 -715 172
-231 361 -484 419 -563 127 -171 335 -448 359 -479 9 -12 24 -31 32 -43 8 -12
26 -37 40 -55 14 -17 33 -43 43 -56 15 -21 507 -681 511 -686 0 -1 32 40 69
90 38 51 195 261 349 467 154 206 322 433 375 503 l95 128 -28 42 c-16 23 -34
48 -41 57 -7 8 -26 33 -42 55 -17 22 -34 45 -39 50 -4 6 -19 26 -32 45 -14 19
-30 42 -37 50 -7 8 -91 121 -187 250 -97 129 -179 240 -183 245 -13 16 -272
365 -307 413 -17 23 -43 57 -58 75 -15 18 -28 35 -28 39 0 4 -6 13 -13 20 -7
7 -77 100 -156 206 l-143 192 -890 0 c-848 0 -890 -1 -876 -17z"/>
<path d="M4969 6659 c-140 -187 -262 -350 -271 -362 -10 -12 -140 -186 -289
-387 -150 -201 -385 -516 -523 -701 -138 -185 -260 -348 -271 -363 -11 -15
-34 -46 -51 -69 -18 -23 -199 -267 -404 -542 -472 -633 -438 -588 -448 -600
-4 -5 -29 -38 -55 -72 l-47 -62 133 -178 c73 -98 227 -304 342 -458 328 -440
590 -791 985 -1320 201 -269 386 -517 410 -550 24 -33 48 -64 53 -70 4 -5 25
-33 45 -60 20 -28 174 -234 341 -458 l303 -407 889 0 889 0 -92 124 c-51 68
-102 136 -113 152 -11 15 -32 43 -47 63 -15 20 -31 41 -35 46 -5 6 -80 107
-168 225 -88 118 -165 222 -172 230 -7 8 -88 117 -180 241 -92 125 -178 239
-190 255 -12 16 -102 137 -201 269 -98 132 -284 382 -413 555 -129 173 -376
504 -549 735 -172 231 -344 462 -382 512 l-70 93 114 152 c63 84 272 365 465
623 193 259 433 581 534 716 101 135 192 257 202 270 18 25 258 347 375 504
37 49 72 96 79 105 12 15 244 326 593 795 106 143 206 277 222 298 l30 37
-890 0 -890 0 -253 -341z"/>
<path d="M2169 2908 c-6 -12 -15 -25 -19 -28 -3 -3 -46 -59 -95 -125 -49 -66
-222 -298 -384 -515 -162 -217 -319 -429 -350 -470 -31 -41 -59 -79 -64 -85
-6 -8 -269 -360 -347 -465 -10 -14 -126 -169 -257 -345 -132 -176 -299 -401
-373 -500 -73 -99 -167 -224 -207 -277 l-74 -98 890 0 889 0 304 407 c166 224
327 439 355 478 29 38 56 75 61 80 16 20 97 131 121 165 13 19 26 37 30 40 7
6 404 539 415 558 5 8 -71 117 -207 300 -118 158 -318 426 -445 595 -219 293
-231 308 -243 285z"/>
</g>
</svg>
